<svg xmlns="http://www.w3.org/2000/svg" xmlns:xlink="http://www.w3.org/1999/xlink" width="500" zoomAndPan="magnify" viewBox="0 0 375 374.999991" height="500" preserveAspectRatio="xMidYMid meet" version="1.2"><defs><clipPath id="d124be1ada"><path d="M 38.203125 0.363281 L 336.671875 0.363281 L 336.671875 374.503906 L 38.203125 374.503906 Z M 38.203125 0.363281 "/></clipPath></defs><g id="3f1b5a1eb1"><g clip-rule="nonzero" clip-path="url(#d124be1ada)"><path style=" stroke:none;fill-rule:evenodd;fill:#010101;fill-opacity:1;" d="M 163.929688 278.335938 C 165.820312 278.335938 167.371094 279.867188 167.371094 281.777344 C 167.371094 283.671875 165.820312 285.199219 163.929688 285.199219 C 162.019531 285.199219 160.488281 283.671875 160.488281 281.777344 C 160.488281 279.867188 162.019531 278.335938 163.929688 278.335938 Z M 143.070312 284.765625 C 144.714844 284.765625 146.039062 286.109375 146.039062 287.734375 C 146.039062 289.378906 144.714844 290.722656 143.070312 290.722656 C 141.425781 290.722656 140.101562 289.378906 140.101562 287.734375 C 140.101562 286.109375 141.425781 284.765625 143.070312 284.765625 Z M 124.121094 288.09375 C 125.746094 288.09375 127.089844 289.417969 127.089844 291.066406 C 127.089844 292.691406 125.746094 294.03125 124.121094 294.03125 C 122.476562 294.03125 121.152344 292.691406 121.152344 291.066406 C 121.152344 289.417969 122.476562 288.09375 124.121094 288.09375 Z M 92.066406 278.296875 C 93.710938 278.296875 95.03125 279.621094 95.03125 281.265625 C 95.03125 282.910156 93.710938 284.238281 92.066406 284.238281 C 90.417969 284.238281 89.09375 282.910156 89.09375 281.265625 C 89.09375 279.621094 90.417969 278.296875 92.066406 278.296875 Z M 78.355469 280.058594 C 80 280.058594 81.34375 281.382812 81.34375 283.027344 C 81.34375 284.671875 80 285.996094 78.355469 285.996094 C 76.726562 285.996094 75.382812 284.671875 75.382812 283.027344 C 75.382812 281.382812 76.726562 280.058594 78.355469 280.058594 Z M 64.359375 282.234375 C 65.984375 282.234375 67.328125 283.574219 67.328125 285.21875 C 67.328125 286.84375 65.984375 288.191406 64.359375 288.191406 C 62.714844 288.191406 61.371094 286.84375 61.371094 285.21875 C 61.371094 283.574219 62.714844 282.234375 64.359375 282.234375 Z M 187.757812 269.390625 C 189.933594 269.390625 191.695312 271.148438 191.695312 273.324219 C 191.695312 275.5 189.933594 277.257812 187.757812 277.257812 C 185.585938 277.257812 183.828125 275.5 183.828125 273.324219 C 183.828125 271.148438 185.585938 269.390625 187.757812 269.390625 Z M 204.953125 267.609375 C 224.5625 253.730469 259.15625 222.941406 287.652344 233.457031 C 244.722656 235.253906 233.414062 256.792969 204.953125 267.609375 Z M 176.941406 135.078125 C 167.011719 137.574219 157.613281 141.164062 149.652344 145.347656 L 176.941406 148.011719 Z M 173.179688 27.824219 C 173.292969 18.882812 173.597656 1.6875 174.179688 0.855469 C 174.992188 -0.257812 177 0.421875 177.320312 3.863281 C 177.546875 6.359375 178.417969 21.472656 178.890625 29.601562 C 184.695312 31.703125 190.199219 34.691406 194.132812 38.886719 C 207.65625 53.28125 211.777344 78.683594 210.148438 79.304688 C 208.523438 79.925781 202.890625 69.925781 178.757812 64.042969 C 154.605469 58.160156 145.546875 66.917969 143.542969 66.917969 C 141.539062 66.917969 142.917969 63.476562 142.917969 63.476562 C 142.917969 63.476562 148.855469 53.851562 149.972656 43.089844 C 151.109375 32.328125 148.722656 27.257812 148.855469 25.765625 C 148.933594 24.839844 160.847656 24.574219 173.179688 27.824219 Z M 146.476562 365.710938 C 174.316406 369.378906 203.023438 363.0625 228.421875 351.828125 C 248.183594 343.070312 257.320312 340.195312 271.445312 340.445312 C 285.574219 340.6875 286.578125 342.316406 286.578125 342.316406 C 286.578125 342.316406 272.203125 343.183594 257.1875 351.828125 C 227.496094 368.90625 178.207031 385.035156 146.476562 365.710938 Z M 128.601562 336.984375 C 141.632812 340.726562 165.140625 345.835938 191.882812 343.941406 C 232.65625 341.066406 254.558594 332.800781 256.5625 333.183594 C 258.566406 333.558594 257.566406 331.121094 255.804688 331.253906 C 254.066406 331.363281 243.855469 333.5 238.105469 331.800781 C 232.355469 330.117188 227.097656 321.496094 225.605469 322.304688 C 224.089844 323.121094 213.839844 328.433594 207.144531 327.679688 C 200.449219 326.921875 201.339844 325.484375 197.894531 327.300781 C 194.453125 329.113281 192.5625 331.308594 186.757812 330.742188 C 180.929688 330.175781 182.070312 328 179.304688 329.304688 C 176.5625 330.625 174.238281 332.558594 152.925781 333.3125 C 143.105469 333.652344 134.84375 333.125 128.828125 332.5 C 112.886719 330.875 114.398438 332.898438 128.601562 336.984375 Z M 266.511719 324.5 C 266.511719 324.5 279.257812 309.597656 292.398438 311.226562 C 305.527344 312.851562 314.660156 319.109375 323.792969 321.496094 C 332.929688 323.859375 336.675781 324.746094 336.675781 324.746094 C 336.675781 324.746094 321.792969 323.859375 300.914062 320.734375 C 280.011719 317.617188 266.511719 324.5 266.511719 324.5 Z M 38.203125 348.386719 C 38.203125 348.386719 53.332031 335.753906 73.984375 336.492188 C 94.617188 337.246094 126.769531 347.628906 156.421875 351.753906 C 186.078125 355.894531 199.957031 351.261719 199.828125 352.132812 C 199.710938 353.019531 190.824219 359.261719 163.929688 359.015625 C 137.039062 358.769531 93.996094 343.753906 69.730469 344.261719 C 45.464844 344.757812 38.203125 348.386719 38.203125 348.386719 Z M 117.480469 93.996094 L 116.386719 68.730469 C 116.121094 62.546875 113.058594 62.09375 113.058594 68.488281 L 113.058594 93.410156 C 100.027344 91.652344 88.019531 89.953125 87.242188 89.554688 C 85.480469 88.683594 83.988281 91.257812 85.105469 93.242188 C 90.023438 101.980469 88.300781 115.558594 83.308594 126.09375 C 78.335938 136.664062 70.070312 144.152344 64.472656 150.605469 C 64.472656 150.605469 62.410156 153.230469 64.339844 154.234375 C 66.289062 155.238281 83.855469 146.480469 107.003906 144.363281 C 130.152344 142.222656 136.28125 144.230469 136.28125 144.230469 C 136.28125 144.230469 146.285156 126.09375 147.289062 111.945312 C 148.289062 97.820312 146.664062 97.820312 146.664062 97.820312 C 146.664062 97.820312 132.160156 95.96875 117.480469 93.996094 Z M 65.910156 325.671875 C 65.910156 325.671875 56.664062 307.667969 53.539062 294.03125 C 50.402344 280.394531 50.289062 273.644531 50.289062 273.644531 C 50.289062 273.644531 104.203125 265.003906 107.328125 266.382812 C 110.445312 267.761719 109.578125 276.765625 114.949219 278.769531 C 120.339844 280.777344 156.988281 276.800781 196.023438 252.046875 C 218.339844 237.882812 233.207031 224.625 251.871094 217.457031 C 251.132812 217.476562 250.339844 217.476562 249.527344 217.496094 C 249.792969 215.945312 250 214.339844 250.171875 212.671875 C 251.945312 194.214844 243.417969 180.390625 243.417969 180.390625 C 243.417969 180.390625 248.089844 189.789062 247.164062 209.683594 C 247.03125 212.464844 246.710938 215.09375 246.253906 217.550781 C 239.921875 217.722656 231.597656 218.25 220.574219 220.636719 C 221.179688 217.195312 221.574219 213.277344 221.539062 208.949219 C 221.441406 190.488281 211.496094 176.664062 211.496094 176.664062 C 211.496094 176.664062 217.128906 186.066406 218.230469 205.957031 C 218.546875 211.804688 217.980469 217.003906 217.035156 221.449219 C 212.304688 222.582031 207.109375 224.058594 201.394531 225.96875 C 195.324219 228.011719 189.671875 230.1875 184.449219 232.398438 C 186.453125 226.746094 188.386719 218.667969 188.324219 208.570312 C 188.195312 187.671875 176.941406 172.03125 176.941406 172.03125 C 176.941406 172.03125 183.316406 182.679688 184.566406 205.183594 C 185.285156 218.140625 182.160156 228.3125 179.363281 234.628906 C 152.980469 246.621094 139.097656 259.121094 139.097656 259.121094 C 139.097656 259.121094 145.1875 247.960938 149.464844 232.53125 C 145.492188 231.792969 138.457031 231.09375 127.148438 231.773438 L 128.394531 259.953125 C 128.8125 269.332031 118.257812 268.859375 118.257812 260.3125 L 118.257812 232.570312 C 115.550781 232.929688 112.90625 233.402344 110.351562 233.949219 C 111.222656 229.65625 111.789062 224.683594 111.769531 219.066406 C 111.640625 198.1875 100.386719 182.546875 100.386719 182.546875 C 100.386719 182.546875 106.761719 193.175781 108.007812 215.699219 C 108.425781 223.074219 107.589844 229.542969 106.269531 234.933594 C 89.871094 239.207031 78.238281 246.429688 78.238281 246.429688 C 78.238281 246.429688 76.539062 247.375 75.234375 246.675781 C 73.910156 245.996094 77.238281 240.925781 78.488281 217.914062 C 79.734375 194.894531 65.605469 164.863281 63.46875 161.230469 C 61.351562 157.621094 64.71875 157.621094 64.71875 157.621094 L 134.277344 163.859375 C 134.277344 163.859375 136.035156 164.371094 143.902344 176.246094 C 147.875 182.246094 151.203125 193.855469 153.546875 203.9375 C 153.472656 198.714844 152.90625 193.457031 151.597656 188.3125 C 146.230469 166.964844 141.804688 156.652344 139.363281 152.058594 C 138.039062 149.5625 137.320312 146.574219 139.023438 145.269531 C 155.609375 127.660156 160.8125 85.414062 144.226562 72.742188 L 224.035156 90.367188 C 243.738281 101.335938 257.65625 131.464844 254.691406 153.421875 C 248.660156 143.757812 239.488281 137.703125 228.78125 134.414062 C 227.703125 115.027344 217.488281 100.828125 217.488281 100.828125 C 217.488281 100.828125 223.75 111.285156 225.089844 133.410156 C 216.242188 131.253906 206.5 130.839844 196.707031 131.691406 C 196.707031 131.425781 196.707031 131.144531 196.707031 130.878906 C 196.589844 109.980469 185.320312 94.339844 185.320312 94.339844 C 185.320312 94.339844 191.710938 104.988281 192.960938 127.496094 C 193.035156 129.0625 193.074219 130.578125 193.054688 132.070312 C 190.40625 132.375 187.777344 132.789062 185.152344 133.261719 L 185.699219 148.882812 L 248.808594 155.050781 C 248.808594 155.050781 259.058594 157.164062 264.941406 171.804688 C 270.519531 185.707031 270.121094 206.449219 264.296875 213.769531 C 270.351562 212.5 276.890625 211.839844 284.25 211.898438 C 298.132812 196.710938 334.5 157.011719 335.101562 156.902344 C 335.863281 156.785156 337.109375 158.90625 335.863281 162.402344 C 334.859375 165.242188 308.816406 200 298.757812 213.371094 C 312.960938 261.730469 274.585938 283.59375 260.0625 317.917969 C 257.320312 324.425781 257.320312 324.9375 257.320312 324.9375 C 257.320312 324.9375 240.296875 313.039062 227.421875 311.925781 C 214.539062 310.789062 180.632812 322.171875 153.492188 324.667969 C 126.332031 327.183594 65.910156 325.671875 65.910156 325.671875 "/></g></g></svg>