<svg xmlns="http://www.w3.org/2000/svg" xmlns:xlink="http://www.w3.org/1999/xlink" width="340" zoomAndPan="magnify" viewBox="0 0 255 67.499998" height="90" preserveAspectRatio="xMidYMid meet" version="1.2"><defs><clipPath id="4ee13ccb14"><path d="M 0.9375 2 L 147 2 L 147 67.003906 L 0.9375 67.003906 Z M 0.9375 2 "/></clipPath><clipPath id="8de4539083"><path d="M 0.9375 0.621094 L 114.023438 0.621094 L 114.023438 61 L 0.9375 61 Z M 0.9375 0.621094 "/></clipPath><clipPath id="a82a7bbf6c"><path d="M 67 1 L 130 1 L 130 65.003906 L 67 65.003906 Z M 67 1 "/></clipPath><clipPath id="7fbd56e406"><path d="M 99.664062 1.207031 L 129.890625 18.710938 L 97.75 74.21875 L 67.523438 56.714844 Z M 99.664062 1.207031 "/></clipPath><clipPath id="1a29590179"><path d="M 0.40625 0.0976562 L 63 0.0976562 L 63 64.003906 L 0.40625 64.003906 Z M 0.40625 0.0976562 "/></clipPath><clipPath id="6a91da2a93"><path d="M 32.664062 0.207031 L 62.890625 17.710938 L 30.75 73.21875 L 0.523438 55.714844 Z M 32.664062 0.207031 "/></clipPath><clipPath id="a54d2e5009"><rect x="0" width="63" y="0" height="65"/></clipPath><clipPath id="4000acd8ef"><path d="M 79 6.261719 L 146.957031 6.261719 L 146.957031 17.675781 L 79 17.675781 Z M 79 6.261719 "/></clipPath><clipPath id="f73aa55733"><path d="M 0.015625 0.816406 L 67.957031 0.816406 L 67.957031 11.675781 L 0.015625 11.675781 Z M 0.015625 0.816406 "/></clipPath><clipPath id="c7da7b8135"><path d="M 0.015625 3 L 30 3 L 30 11.675781 L 0.015625 11.675781 Z M 0.015625 3 "/></clipPath><clipPath id="763615af16"><rect x="0" width="68" y="0" height="12"/></clipPath><clipPath id="48c5f710c9"><rect x="0" width="147" y="0" height="66"/></clipPath><clipPath id="d66a72f89c"><path d="M 0.121094 7 L 22 7 L 22 29 L 0.121094 29 Z M 0.121094 7 "/></clipPath><clipPath id="d17780ea0b"><rect x="0" width="181" y="0" height="35"/></clipPath></defs><g id="c9e2dc25b4"><g clip-rule="nonzero" clip-path="url(#4ee13ccb14)"><g transform="matrix(1,0,0,1,0.000000000000000222,2)"><g clip-path="url(#48c5f710c9)"><path style=" stroke:none;fill-rule:evenodd;fill:#ffffff;fill-opacity:1;" d="M 23.414062 58.886719 C 23.597656 57.210938 23.824219 55.582031 24.140625 53.953125 C 19.65625 53.160156 15.175781 52.390625 10.671875 51.574219 C 9.789062 54.40625 9.085938 57.324219 8.609375 60.289062 Z M 13.230469 44.761719 C 17.460938 45.53125 21.695312 46.277344 25.90625 47.027344 C 27.738281 41.390625 30.410156 36.09375 33.828125 31.292969 C 31 29.597656 28.191406 27.898438 25.386719 26.222656 C 20.335938 31.679688 16.195312 37.949219 13.230469 44.761719 Z M 29.617188 22.011719 C 32.199219 23.574219 34.824219 25.136719 37.472656 26.699219 C 40.957031 22.691406 45.035156 19.136719 49.582031 16.128906 C 48.226562 14.472656 46.867188 12.820312 45.53125 11.191406 C 39.644531 14.089844 34.328125 17.757812 29.617188 22.011719 Z M 50.308594 9.019531 C 51.554688 10.492188 52.773438 11.960938 54.019531 13.457031 C 57.753906 11.417969 61.785156 9.722656 66.0625 8.386719 C 65.566406 7.1875 65.066406 5.964844 64.546875 4.761719 C 62.53125 5.148438 60.925781 5.511719 58.523438 6.191406 C 56.101562 6.890625 52.957031 7.957031 50.308594 9.019531 Z M 68.710938 4.105469 C 69.164062 5.171875 69.617188 6.257812 70.070312 7.320312 C 75.296875 6.054688 80.59375 5.464844 85.824219 5.441406 C 85.800781 4.855469 85.78125 4.265625 85.734375 3.652344 C 80.097656 3.203125 74.394531 3.316406 68.710938 4.105469 Z M 89.21875 4.015625 C 89.242188 4.515625 89.265625 5.011719 89.3125 5.511719 C 96.054688 5.804688 102.734375 7.09375 109.074219 9.222656 C 102.757812 6.664062 96.054688 4.898438 89.21875 4.015625 Z M 89.21875 4.015625 "/><path style=" stroke:none;fill-rule:evenodd;fill:#b3b3b3;fill-opacity:1;" d="M 89.265625 4.671875 C 95.71875 5.285156 102.347656 6.777344 109.09375 9.246094 C 102.757812 7.09375 96.078125 5.828125 89.332031 5.53125 C 89.289062 5.238281 89.289062 4.945312 89.265625 4.671875 M 69.300781 5.53125 C 74.574219 4.539062 80.097656 4.128906 85.78125 4.425781 C 85.800781 4.761719 85.800781 5.101562 85.824219 5.441406 C 80.59375 5.464844 75.296875 6.078125 70.070312 7.320312 C 69.796875 6.734375 69.550781 6.121094 69.300781 5.53125 Z M 52.140625 11.214844 C 56.261719 9.199219 60.652344 7.59375 65.246094 6.4375 C 65.519531 7.09375 65.792969 7.75 66.0625 8.429688 C 61.785156 9.742188 57.753906 11.441406 54.019531 13.5 C 53.386719 12.707031 52.753906 11.960938 52.140625 11.214844 Z M 33.761719 24.480469 C 37.835938 20.316406 42.476562 16.671875 47.589844 13.660156 C 48.269531 14.472656 48.925781 15.289062 49.605469 16.128906 C 45.054688 19.136719 40.980469 22.691406 37.496094 26.699219 C 36.226562 25.953125 34.984375 25.226562 33.761719 24.480469 Z M 19.816406 45.9375 C 22.238281 39.757812 25.613281 34.011719 29.800781 28.894531 C 31.132812 29.6875 32.46875 30.5 33.804688 31.292969 C 30.386719 36.09375 27.714844 41.367188 25.882812 47.027344 C 23.867188 46.664062 21.855469 46.300781 19.816406 45.9375 Z M 16.195312 59.566406 C 16.535156 57.28125 17.007812 55.015625 17.574219 52.796875 C 19.769531 53.183594 21.945312 53.566406 24.140625 53.953125 C 23.824219 55.582031 23.597656 57.234375 23.414062 58.886719 Z M 16.195312 59.566406 "/><path style=" stroke:none;fill-rule:evenodd;fill:#ff6e00;fill-opacity:1;" d="M 67.105469 11.714844 C 79.261719 8.25 94.402344 8.632812 106.898438 12.957031 C 107.53125 12.324219 108.191406 11.667969 108.800781 11.011719 C 96.035156 6.621094 80.6875 6.191406 68.191406 9.742188 C 55.695312 13.296875 47.183594 19.070312 40.007812 27.015625 C 32.5625 35.230469 27.625 45.488281 26.0625 56.714844 C 27.761719 45.984375 32.628906 36.160156 39.851562 28.304688 C 46.867188 20.675781 54.949219 15.175781 67.105469 11.714844 "/><path style=" stroke:none;fill-rule:evenodd;fill:#ffffff;fill-opacity:1;" d="M 112.671875 10.921875 C 112.285156 10.71875 111.878906 10.492188 111.472656 10.285156 C 105.5625 16.261719 99.519531 22.398438 93.316406 28.691406 C 88.746094 33.308594 84.125 38.015625 79.394531 42.816406 L 86.503906 45.53125 C 90.917969 39.667969 97.730469 30.703125 101.195312 26.109375 C 105.089844 20.972656 108.914062 15.902344 112.671875 10.921875 "/><path style=" stroke:none;fill-rule:evenodd;fill:#ff6e00;fill-opacity:1;" d="M 112.671875 10.921875 C 112.46875 10.808594 112.285156 10.71875 112.082031 10.605469 L 83.289062 44.308594 L 86.527344 45.53125 C 90.941406 39.667969 97.753906 30.703125 101.21875 26.109375 C 105.089844 20.972656 108.914062 15.902344 112.671875 10.921875 "/><g clip-rule="nonzero" clip-path="url(#8de4539083)"><path style=" stroke:none;fill-rule:evenodd;fill:#ff6e00;fill-opacity:1;" d="M 6.84375 60.425781 C 8.226562 51.757812 11.394531 43.15625 16.78125 34.800781 C 25.882812 20.722656 44.308594 8.792969 57.980469 4.988281 C 71.675781 1.1875 77.402344 1.570312 86.867188 2.5 C 96.304688 3.429688 105.5625 6.007812 114.097656 10.039062 C 105.109375 5.488281 95.242188 2.476562 85.121094 1.34375 C 44.398438 -3.226562 7.886719 24.34375 0.9375 60.992188 Z M 6.84375 60.425781 "/></g><path style=" stroke:none;fill-rule:evenodd;fill:#ffffff;fill-opacity:1;" d="M 50.488281 22.53125 C 52.230469 24.09375 51.984375 26.699219 49.582031 28.78125 C 47.183594 30.886719 43.449219 31.65625 40.824219 30.75 C 38.71875 33.035156 36.863281 35.480469 35.253906 38.0625 C 38.152344 38.808594 39.625 41.277344 38.445312 44.265625 C 37.269531 47.253906 33.691406 49.71875 30.140625 50.035156 C 29.4375 52.730469 29.03125 55.515625 28.917969 58.367188 L 40.144531 57.324219 C 39.53125 49.582031 41.953125 42.769531 46.210938 36.773438 C 50.988281 30.027344 58.480469 24.457031 67.578125 21.332031 C 76.679688 18.210938 86.34375 17.757812 95.171875 19.589844 C 96.578125 19.882812 97.980469 20.222656 99.339844 20.632812 L 102.757812 17.167969 C 102.417969 16.261719 102.484375 15.335938 102.960938 14.453125 C 99.8125 13.613281 96.601562 13.027344 93.363281 12.640625 C 92.523438 14.699219 89.492188 16.21875 86.117188 16.148438 C 82.746094 16.082031 80.300781 14.472656 80.050781 12.460938 C 76.949219 12.730469 73.851562 13.207031 70.75 13.929688 C 71.246094 15.902344 69.503906 18.164062 66.425781 19.207031 C 63.347656 20.269531 60.042969 19.726562 58.546875 18.074219 C 55.671875 19.386719 53 20.902344 50.488281 22.53125 "/><path style=" stroke:none;fill-rule:evenodd;fill:#ffffff;fill-opacity:1;" d="M 57.347656 32.992188 C 58.570312 33.445312 58.050781 37.066406 56.171875 41.117188 C 54.292969 45.167969 51.777344 48.089844 50.535156 47.660156 C 49.3125 47.207031 49.832031 43.585938 51.710938 39.535156 C 53.613281 35.457031 56.125 32.539062 57.347656 32.992188 M 51.121094 41.636719 C 51.007812 41.933594 50.917969 42.203125 50.828125 42.5 C 50.578125 43.289062 50.351562 44.128906 50.238281 44.945312 C 50.171875 45.488281 50.105469 46.144531 50.21875 46.6875 C 50.261719 46.957031 50.398438 47.296875 50.671875 47.386719 C 51.234375 47.59375 52.140625 46.730469 52.617188 46.257812 C 52.34375 45.644531 52.457031 44.648438 52.59375 44.015625 C 52.707031 43.425781 52.867188 42.839844 53.070312 42.25 Z M 51.574219 40.484375 C 51.507812 40.621094 51.460938 40.753906 51.394531 40.890625 L 53.273438 41.570312 C 53.320312 41.433594 53.386719 41.300781 53.433594 41.164062 Z M 52.480469 38.582031 C 52.414062 38.71875 52.34375 38.832031 52.277344 38.96875 L 54.15625 39.644531 C 54.222656 39.511719 54.292969 39.398438 54.359375 39.261719 Z M 57.734375 35.230469 C 57.777344 34.621094 57.800781 33.445312 57.257812 33.242188 C 56.984375 33.148438 56.601562 33.308594 56.351562 33.464844 C 55.855469 33.785156 55.378906 34.28125 54.992188 34.734375 C 54.429688 35.390625 53.929688 36.113281 53.453125 36.863281 C 53.226562 37.222656 53.023438 37.5625 52.820312 37.925781 L 54.699219 38.652344 C 55.0625 38.015625 55.492188 37.382812 55.921875 36.816406 C 56.351562 36.273438 57.054688 35.480469 57.734375 35.230469 Z M 66.515625 31.90625 L 74.234375 35.277344 C 78.332031 38.945312 71.066406 51.328125 67.828125 54.8125 C 66.199219 56.554688 64.523438 57.640625 63.121094 57.078125 L 55.96875 54.519531 C 56.871094 54.15625 57.914062 53.296875 59 52.050781 C 60.628906 50.148438 62.375 47.367188 63.867188 44.128906 C 64.003906 43.8125 64.140625 43.515625 64.273438 43.222656 C 65.609375 40.191406 66.425781 37.335938 66.71875 35.164062 C 66.902344 33.828125 66.832031 32.695312 66.515625 31.90625 Z M 64.589844 31.066406 L 65.585938 31.496094 C 66.019531 31.972656 66.109375 33.21875 65.90625 34.914062 C 65.632812 37.066406 64.816406 39.871094 63.503906 42.882812 C 63.371094 43.199219 63.234375 43.496094 63.097656 43.789062 C 61.605469 47.003906 59.882812 49.742188 58.277344 51.621094 C 56.894531 53.226562 55.671875 54.179688 54.878906 54.132812 L 54.019531 53.816406 C 54.949219 53.453125 55.988281 52.570312 57.054688 51.328125 C 58.683594 49.425781 60.449219 46.617188 61.941406 43.359375 C 62.101562 43.042969 62.238281 42.746094 62.351562 42.453125 C 63.6875 39.398438 64.523438 36.546875 64.796875 34.347656 C 64.976562 32.992188 64.910156 31.859375 64.589844 31.066406 Z M 62.644531 30.230469 L 63.640625 30.660156 C 64.09375 31.136719 64.183594 32.378906 63.957031 34.101562 C 63.6875 36.25 62.847656 39.082031 61.535156 42.089844 C 61.398438 42.40625 61.265625 42.703125 61.128906 42.996094 C 59.632812 46.210938 57.890625 48.996094 56.285156 50.875 C 54.878906 52.503906 53.65625 53.453125 52.84375 53.410156 L 51.984375 53.113281 C 52.910156 52.753906 53.953125 51.871094 55.039062 50.601562 C 56.667969 48.679688 58.433594 45.871094 59.949219 42.613281 C 60.109375 42.296875 60.246094 41.976562 60.359375 41.707031 C 61.695312 38.652344 62.554688 35.777344 62.824219 33.578125 C 63.03125 32.175781 62.984375 31.023438 62.644531 30.230469 Z M 69.980469 43.496094 C 71.765625 44.128906 72.152344 46.4375 70.816406 48.609375 C 69.480469 50.804688 66.945312 52.050781 65.15625 51.417969 C 63.371094 50.785156 62.984375 48.476562 64.320312 46.300781 C 65.65625 44.105469 68.191406 42.839844 69.980469 43.496094 Z M 71.109375 45.148438 C 71.449219 46.074219 71.519531 46.890625 70.546875 48.496094 C 69.570312 50.105469 66.855469 51.597656 65.382812 51.054688 C 63.890625 50.535156 63.574219 49.109375 64.09375 47.5 C 64.320312 48.113281 64.273438 48.429688 65.429688 48.835938 C 66.582031 49.246094 69.886719 47.457031 70.589844 46.277344 C 71.316406 45.101562 70.996094 45.53125 71.109375 45.148438 Z M 59.882812 29.007812 L 61.695312 29.800781 C 62.167969 30.253906 62.261719 31.519531 62.035156 33.285156 C 61.761719 35.457031 60.925781 38.289062 59.589844 41.320312 C 59.453125 41.636719 59.316406 41.933594 59.179688 42.226562 C 57.6875 45.464844 55.945312 48.25 54.316406 50.148438 C 52.910156 51.800781 51.667969 52.777344 50.851562 52.707031 L 49.085938 52.074219 C 50.375 51.78125 51.800781 50.285156 52.503906 49.449219 C 53.433594 48.382812 54.246094 47.183594 54.992188 46.007812 C 55.875 44.582031 56.667969 43.085938 57.371094 41.570312 C 58.070312 40.054688 58.683594 38.515625 59.203125 36.929688 C 59.613281 35.617188 59.972656 34.28125 60.15625 32.921875 C 60.335938 31.90625 60.496094 30.046875 59.882812 29.007812 Z M 67.375 33.964844 L 74.527344 36.996094 C 74.4375 36.660156 74.300781 36.320312 74.121094 36.023438 C 74.078125 35.957031 73.984375 35.820312 73.917969 35.753906 L 67.351562 32.878906 C 67.375 33.242188 67.375 33.601562 67.375 33.964844 Z M 66.96875 36.929688 L 74.6875 40.144531 C 74.777344 39.351562 74.800781 38.558594 74.6875 37.835938 L 67.332031 34.6875 C 67.308594 34.871094 67.285156 35.050781 67.285156 35.210938 C 67.195312 35.777344 67.105469 36.363281 66.96875 36.929688 Z M 66.222656 39.691406 L 74.167969 42.726562 C 74.234375 42.476562 74.300781 42.226562 74.347656 41.976562 L 66.46875 38.875 C 66.449219 38.921875 66.449219 38.96875 66.425781 39.011719 C 66.355469 39.238281 66.289062 39.464844 66.222656 39.691406 Z M 59 28.621094 C 60.945312 29.324219 60.109375 35.074219 57.167969 41.457031 C 54.203125 47.839844 50.21875 52.457031 48.292969 51.757812 C 46.347656 51.054688 47.183594 45.304688 50.125 38.921875 C 53.070312 32.539062 57.054688 27.921875 59 28.621094 Z M 59 28.621094 "/><path style=" stroke:none;fill-rule:evenodd;fill:#ffffff;fill-opacity:1;" d="M 101.285156 56.625 L 78.355469 48.15625 C 77.8125 47.953125 77.222656 48 76.703125 48.226562 C 76.203125 48.453125 75.75 48.882812 75.503906 49.449219 C 75.253906 50.015625 75.253906 50.601562 75.433594 51.101562 C 75.636719 51.621094 76.023438 52.050781 76.566406 52.253906 L 89.605469 57.6875 Z M 87.792969 57.867188 L 76.203125 53.046875 C 75.480469 52.730469 74.9375 52.164062 74.664062 51.460938 C 74.394531 50.761719 74.414062 49.945312 74.753906 49.175781 C 75.09375 48.40625 75.707031 47.816406 76.429688 47.480469 C 77.15625 47.160156 77.96875 47.09375 78.71875 47.367188 L 103.277344 56.421875 L 106.648438 56.101562 L 75.140625 44.128906 C 73.894531 47.34375 71.949219 50.648438 70.320312 52.890625 L 83.921875 58.230469 Z M 87.792969 57.867188 "/><g clip-rule="nonzero" clip-path="url(#a82a7bbf6c)"><g clip-rule="nonzero" clip-path="url(#7fbd56e406)"><g transform="matrix(1,0,0,1,67,1)"><g id="737a30fbdf" clip-path="url(#a54d2e5009)"><g clip-rule="nonzero" clip-path="url(#1a29590179)"><g clip-rule="nonzero" clip-path="url(#6a91da2a93)"><path style=" stroke:none;fill-rule:nonzero;fill:#000000;fill-opacity:1;" d="M 32.664062 0.207031 L 62.890625 17.710938 L 30.753906 73.207031 L 0.527344 55.703125 Z M 32.664062 0.207031 "/></g></g></g></g></g></g><g clip-rule="nonzero" clip-path="url(#4000acd8ef)"><g transform="matrix(1,0,0,1,79,6)"><g id="fe0098579a" clip-path="url(#763615af16)"><g clip-rule="nonzero" clip-path="url(#f73aa55733)"><path style=" stroke:none;fill-rule:evenodd;fill:#ff6e00;fill-opacity:1;" d="M 47.441406 6.832031 C 47.441406 6.832031 40.488281 3.417969 32.640625 1.839844 C 24.789062 0.261719 20.296875 0.746094 16.046875 1.882812 C 11.792969 3.023438 3.800781 4.058594 0.644531 2.78125 C 0.644531 2.78125 3.480469 6.109375 11.160156 6.109375 C 18.839844 6.109375 19.179688 6.109375 19.179688 6.109375 C 19.179688 6.109375 15.960938 5.09375 15.960938 4.21875 C 15.960938 3.34375 26.972656 1.378906 32.875 2.960938 C 38.773438 4.542969 42.261719 5.160156 42.261719 5.96875 C 42.261719 6.78125 38.890625 7.996094 33.8125 7.996094 C 28.738281 7.996094 23.296875 5.328125 23.296875 5.328125 C 23.296875 5.328125 28.609375 10.382812 35.691406 10.382812 C 42.773438 10.382812 43.113281 8.230469 47.039062 8.785156 C 50.960938 9.339844 54.078125 10.875 55.269531 11.8125 L 67.960938 11.8125 C 62.273438 10.390625 53.136719 7.21875 47.441406 6.832031 Z M 47.441406 6.832031 "/></g><g clip-rule="nonzero" clip-path="url(#c7da7b8135)"><path style=" stroke:none;fill-rule:evenodd;fill:#000000;fill-opacity:1;" d="M 0.0117188 3.796875 C 0.0117188 3.796875 3.914062 6.550781 8.222656 6.550781 C 12.53125 6.550781 22.941406 6.507812 29.082031 10.324219 C 29.082031 10.324219 19.078125 7.148438 11.804688 8.382812 C 7.304688 9.148438 5.332031 10.386719 3.039062 11.710938 C 3.558594 10.542969 4.242188 9.3125 3.742188 7.945312 C 3.242188 6.582031 0.480469 5.652344 0.0117188 3.796875 Z M 0.0117188 3.796875 "/></g></g></g></g></g></g></g><g transform="matrix(1,0,0,1,73,23)"><g clip-path="url(#d17780ea0b)"><g clip-rule="nonzero" clip-path="url(#d66a72f89c)"><g style="fill:#ff6e00;fill-opacity:1;"><g transform="translate(0.956682, 28.076023)"><path style="stroke:none" d="M -0.203125 0 L 9.734375 -20.90625 L 18.390625 -20.90625 L 20.765625 0 L 15.375 0 L 15.0625 -4.171875 L 7.609375 -4.171875 L 5.84375 0 Z M 9.28125 -8.25 L 14.734375 -8.25 L 14.046875 -16.90625 L 13.03125 -16.90625 Z M 9.28125 -8.25 "/></g></g></g><g style="fill:#ff6e00;fill-opacity:1;"><g transform="translate(19.567768, 28.076023)"><path style="stroke:none" d="M 4.875 0 L 2.359375 -3.15625 L 5.46875 -20.90625 L 10.84375 -20.90625 L 8.03125 -5.015625 L 8.859375 -4.03125 L 14.609375 -4.03125 L 15.78125 -5.015625 L 18.578125 -20.90625 L 23.953125 -20.90625 L 20.828125 -3.15625 L 17.109375 0 Z M 4.875 0 "/></g></g><g style="fill:#ff6e00;fill-opacity:1;"><g transform="translate(39.342108, 28.076023)"><path style="stroke:none" d="M 5.953125 0 L 8.875 -16.59375 L 3.03125 -16.59375 L 3.796875 -20.90625 L 20.859375 -20.90625 L 20.09375 -16.59375 L 14.25 -16.59375 L 11.328125 0 Z M 5.953125 0 "/></g></g><g style="fill:#ff6e00;fill-opacity:1;"><g transform="translate(54.34993, 28.076023)"><path style="stroke:none" d="M 4.515625 0 L 1.921875 -3.15625 L 4.484375 -17.765625 L 8.203125 -20.90625 L 20.578125 -20.90625 L 23.15625 -17.765625 L 20.59375 -3.15625 L 16.890625 0 Z M 8.453125 -4.03125 L 14.421875 -4.03125 L 15.578125 -5.015625 L 17.5 -15.890625 L 16.625 -16.890625 L 10.71875 -16.890625 L 9.53125 -15.890625 L 7.609375 -5.015625 Z M 8.453125 -4.03125 "/></g></g><g style="fill:#ff6e00;fill-opacity:1;"><g transform="translate(73.471707, 28.076023)"><path style="stroke:none" d="M 1.921875 0 L 5.625 -20.90625 L 10.671875 -20.90625 L 13.765625 -8.3125 L 21.3125 -20.90625 L 26.875 -20.90625 L 23.1875 0 L 18.1875 0 L 20.203125 -11.484375 L 13.953125 -0.90625 L 11.46875 -0.90625 L 8.9375 -11.484375 L 6.921875 0 Z M 1.921875 0 "/></g></g><g style="fill:#ff6e00;fill-opacity:1;"><g transform="translate(96.310239, 28.076023)"><path style="stroke:none" d="M 4.515625 0 L 1.921875 -3.15625 L 4.484375 -17.765625 L 8.203125 -20.90625 L 20.578125 -20.90625 L 23.15625 -17.765625 L 20.59375 -3.15625 L 16.890625 0 Z M 8.453125 -4.03125 L 14.421875 -4.03125 L 15.578125 -5.015625 L 17.5 -15.890625 L 16.625 -16.890625 L 10.71875 -16.890625 L 9.53125 -15.890625 L 7.609375 -5.015625 Z M 8.453125 -4.03125 "/></g></g><g style="fill:#ff6e00;fill-opacity:1;"><g transform="translate(115.432016, 28.076023)"><path style="stroke:none" d="M 5.953125 0 L 8.875 -16.59375 L 3.03125 -16.59375 L 3.796875 -20.90625 L 20.859375 -20.90625 L 20.09375 -16.59375 L 14.25 -16.59375 L 11.328125 0 Z M 5.953125 0 "/></g></g><g style="fill:#ff6e00;fill-opacity:1;"><g transform="translate(130.439838, 28.076023)"><path style="stroke:none" d="M 1.078125 0 L 1.78125 -4 L 4.09375 -4 L 6.328125 -16.90625 L 4.0625 -16.90625 L 4.765625 -20.90625 L 14.53125 -20.90625 L 13.8125 -16.90625 L 11.515625 -16.90625 L 9.1875 -4 L 11.546875 -4 L 10.84375 0 Z M 1.078125 0 "/></g></g><g style="fill:#ff6e00;fill-opacity:1;"><g transform="translate(140.085317, 28.076023)"><path style="stroke:none" d="M 5.5 0 L 3.890625 -20.90625 L 9.765625 -20.90625 L 10.25 -4 L 11.265625 -4 L 17.703125 -20.90625 L 24.171875 -20.90625 L 14.953125 0 Z M 5.5 0 "/></g></g><g style="fill:#ff6e00;fill-opacity:1;"><g transform="translate(157.90198, 28.076023)"><path style="stroke:none" d="M 1.921875 0 L 5.625 -20.90625 L 21.625 -20.90625 L 20.859375 -16.59375 L 10.21875 -16.59375 L 9.53125 -12.734375 L 19.125 -12.734375 L 18.4375 -8.734375 L 8.828125 -8.734375 L 8.0625 -4.3125 L 18.703125 -4.3125 L 17.9375 0 Z M 1.921875 0 "/></g></g></g></g><g style="fill:#b3b3b3;fill-opacity:1;"><g transform="translate(73.956681, 63.765714)"><path style="stroke:none" d="M 5.75 0 L 1.984375 0 L 0.96875 -1.25 L 1.96875 -6.96875 L 3.171875 -7.984375 L 6.84375 -7.984375 L 7.78125 -6.859375 L 7.0625 -6.25 L 6.359375 -7.109375 L 3.578125 -7.109375 L 2.875 -6.515625 L 2 -1.46875 L 2.46875 -0.875 L 5.328125 -0.875 L 6.375 -1.75 L 6.96875 -1.03125 Z M 5.75 0 "/></g></g><g style="fill:#b3b3b3;fill-opacity:1;"><g transform="translate(89.626723, 63.765714)"><path style="stroke:none" d="M 0.140625 0 L 4.25 -7.984375 L 5.703125 -7.984375 L 7.078125 0 L 6.078125 0 L 5.765625 -2.078125 L 2.28125 -2.078125 L 1.265625 0 Z M 2.71875 -2.953125 L 5.625 -2.953125 L 4.984375 -7.0625 L 4.765625 -7.0625 Z M 2.71875 -2.953125 "/></g></g><g style="fill:#b3b3b3;fill-opacity:1;"><g transform="translate(105.524191, 63.765714)"><path style="stroke:none" d="M 0.9375 0 L 2.359375 -7.984375 L 6.640625 -7.984375 L 7.640625 -6.78125 L 7.203125 -4.28125 L 5.90625 -3.171875 L 5.828125 -3.171875 L 6.71875 0 L 5.625 0 L 4.765625 -3.171875 L 2.484375 -3.171875 L 1.9375 0 Z M 2.640625 -4.046875 L 5.578125 -4.046875 L 6.28125 -4.640625 L 6.609375 -6.515625 L 6.125 -7.109375 L 3.1875 -7.109375 Z M 2.640625 -4.046875 "/></g></g><g style="fill:#b3b3b3;fill-opacity:1;"><g transform="translate(121.529965, 63.765714)"><path style="stroke:none" d=""/></g></g><g style="fill:#b3b3b3;fill-opacity:1;"><g transform="translate(132.608113, 63.765714)"><path style="stroke:none" d="M 0.875 0 L 1.046875 -0.90625 L 4.984375 -0.90625 L 5.671875 -1.5 L 5.953125 -3.09375 L 5.46875 -3.703125 L 2.484375 -3.703125 L 1.46875 -4.9375 L 1.828125 -6.9375 L 3.046875 -7.984375 L 7.390625 -7.984375 L 7.21875 -7.078125 L 3.421875 -7.078125 L 2.71875 -6.484375 L 2.5 -5.15625 L 2.984375 -4.5625 L 5.96875 -4.5625 L 6.984375 -3.328125 L 6.578125 -1.046875 L 5.34375 0 Z M 0.875 0 "/></g></g><g style="fill:#b3b3b3;fill-opacity:1;"><g transform="translate(148.408113, 63.765714)"><path style="stroke:none" d="M 0.9375 0 L 2.359375 -7.984375 L 7.625 -7.984375 L 7.453125 -7.078125 L 3.171875 -7.078125 L 2.75 -4.65625 L 6.578125 -4.65625 L 6.421875 -3.75 L 2.59375 -3.75 L 2.09375 -0.90625 L 6.375 -0.90625 L 6.21875 0 Z M 0.9375 0 "/></g></g><g style="fill:#b3b3b3;fill-opacity:1;"><g transform="translate(163.850729, 63.765714)"><path style="stroke:none" d="M 0.9375 0 L 2.359375 -7.984375 L 6.640625 -7.984375 L 7.640625 -6.78125 L 7.203125 -4.28125 L 5.90625 -3.171875 L 5.828125 -3.171875 L 6.71875 0 L 5.625 0 L 4.765625 -3.171875 L 2.484375 -3.171875 L 1.9375 0 Z M 2.640625 -4.046875 L 5.578125 -4.046875 L 6.28125 -4.640625 L 6.609375 -6.515625 L 6.125 -7.109375 L 3.1875 -7.109375 Z M 2.640625 -4.046875 "/></g></g><g style="fill:#b3b3b3;fill-opacity:1;"><g transform="translate(179.856503, 63.765714)"><path style="stroke:none" d="M 2.859375 0 L 1.53125 -7.984375 L 2.53125 -7.984375 L 3.625 -0.9375 L 3.875 -0.9375 L 7.390625 -7.984375 L 8.484375 -7.984375 L 4.390625 0 Z M 2.859375 0 "/></g></g><g style="fill:#b3b3b3;fill-opacity:1;"><g transform="translate(195.743145, 63.765714)"><path style="stroke:none" d="M 0.671875 0 L 0.828125 -0.90625 L 1.8125 -0.90625 L 2.890625 -7.078125 L 1.921875 -7.078125 L 2.078125 -7.984375 L 5.015625 -7.984375 L 4.859375 -7.078125 L 3.875 -7.078125 L 2.796875 -0.90625 L 3.78125 -0.90625 L 3.609375 0 Z M 0.671875 0 "/></g></g><g style="fill:#b3b3b3;fill-opacity:1;"><g transform="translate(208.694877, 63.765714)"><path style="stroke:none" d="M 5.75 0 L 1.984375 0 L 0.96875 -1.25 L 1.96875 -6.96875 L 3.171875 -7.984375 L 6.84375 -7.984375 L 7.78125 -6.859375 L 7.0625 -6.25 L 6.359375 -7.109375 L 3.578125 -7.109375 L 2.875 -6.515625 L 2 -1.46875 L 2.46875 -0.875 L 5.328125 -0.875 L 6.375 -1.75 L 6.96875 -1.03125 Z M 5.75 0 "/></g></g><g style="fill:#b3b3b3;fill-opacity:1;"><g transform="translate(224.364919, 63.765714)"><path style="stroke:none" d="M 0.9375 0 L 2.359375 -7.984375 L 7.625 -7.984375 L 7.453125 -7.078125 L 3.171875 -7.078125 L 2.75 -4.65625 L 6.578125 -4.65625 L 6.421875 -3.75 L 2.59375 -3.75 L 2.09375 -0.90625 L 6.375 -0.90625 L 6.21875 0 Z M 0.9375 0 "/></g></g><g style="fill:#b3b3b3;fill-opacity:1;"><g transform="translate(239.807536, 63.765714)"><path style="stroke:none" d="M 0.875 0 L 1.046875 -0.90625 L 4.984375 -0.90625 L 5.671875 -1.5 L 5.953125 -3.09375 L 5.46875 -3.703125 L 2.484375 -3.703125 L 1.46875 -4.9375 L 1.828125 -6.9375 L 3.046875 -7.984375 L 7.390625 -7.984375 L 7.21875 -7.078125 L 3.421875 -7.078125 L 2.71875 -6.484375 L 2.5 -5.15625 L 2.984375 -4.5625 L 5.96875 -4.5625 L 6.984375 -3.328125 L 6.578125 -1.046875 L 5.34375 0 Z M 0.875 0 "/></g></g></g></svg>