<svg xmlns="http://www.w3.org/2000/svg" viewBox="0 0 120 100" width="120" height="100">
  <defs>
    <linearGradient id="maleGradient" x1="0%" y1="0%" x2="100%" y2="100%">
      <stop offset="0%" style="stop-color:#667eea;stop-opacity:1" />
      <stop offset="100%" style="stop-color:#764ba2;stop-opacity:1" />
    </linearGradient>
    <linearGradient id="femaleGradient" x1="0%" y1="0%" x2="100%" y2="100%">
      <stop offset="0%" style="stop-color:#ff9a9e;stop-opacity:1" />
      <stop offset="100%" style="stop-color:#fecfef;stop-opacity:1" />
    </linearGradient>
    <filter id="softShadow" x="-50%" y="-50%" width="200%" height="200%">
      <feDropShadow dx="2" dy="2" stdDeviation="3" flood-color="rgba(0,0,0,0.2)"/>
    </filter>
  </defs>
  
  <!-- Female figure (left) -->
  <g transform="translate(20,10)" filter="url(#softShadow)">
    <!-- Head -->
    <circle cx="20" cy="20" r="12" fill="url(#femaleGradient)" stroke="#ff416c" stroke-width="1"/>
    <!-- Hair -->
    <path d="M8 15 Q8 8, 20 8 Q32 8, 32 15 Q32 20, 28 22 Q24 18, 20 18 Q16 18, 12 22 Q8 20, 8 15" fill="#8B4513" opacity="0.8"/>
    <!-- Body -->
    <ellipse cx="20" cy="45" rx="12" ry="18" fill="url(#femaleGradient)" stroke="#ff416c" stroke-width="1"/>
    <!-- Arms -->
    <ellipse cx="8" cy="40" rx="4" ry="12" fill="url(#femaleGradient)" stroke="#ff416c" stroke-width="1"/>
    <ellipse cx="32" cy="40" rx="4" ry="12" fill="url(#femaleGradient)" stroke="#ff416c" stroke-width="1"/>
    <!-- Legs -->
    <ellipse cx="15" cy="70" rx="4" ry="15" fill="url(#femaleGradient)" stroke="#ff416c" stroke-width="1"/>
    <ellipse cx="25" cy="70" rx="4" ry="15" fill="url(#femaleGradient)" stroke="#ff416c" stroke-width="1"/>
    <!-- Face -->
    <circle cx="17" cy="18" r="1.5" fill="#2c3e50"/>
    <circle cx="23" cy="18" r="1.5" fill="#2c3e50"/>
    <path d="M18 22 Q20 24, 22 22" stroke="#2c3e50" stroke-width="1.5" fill="none"/>
  </g>
  
  <!-- Male figure (right) -->
  <g transform="translate(60,10)" filter="url(#softShadow)">
    <!-- Head -->
    <circle cx="20" cy="20" r="12" fill="url(#maleGradient)" stroke="#667eea" stroke-width="1"/>
    <!-- Hair -->
    <path d="M10 12 Q10 8, 20 8 Q30 8, 30 12 Q30 16, 25 18 Q20 15, 15 18 Q10 16, 10 12" fill="#4A4A4A" opacity="0.8"/>
    <!-- Body -->
    <ellipse cx="20" cy="45" rx="14" ry="18" fill="url(#maleGradient)" stroke="#667eea" stroke-width="1"/>
    <!-- Arms -->
    <ellipse cx="6" cy="40" rx="4" ry="14" fill="url(#maleGradient)" stroke="#667eea" stroke-width="1"/>
    <ellipse cx="34" cy="40" rx="4" ry="14" fill="url(#maleGradient)" stroke="#667eea" stroke-width="1"/>
    <!-- Legs -->
    <ellipse cx="14" cy="72" rx="4" ry="16" fill="url(#maleGradient)" stroke="#667eea" stroke-width="1"/>
    <ellipse cx="26" cy="72" rx="4" ry="16" fill="url(#maleGradient)" stroke="#667eea" stroke-width="1"/>
    <!-- Face -->
    <circle cx="17" cy="18" r="1.5" fill="#2c3e50"/>
    <circle cx="23" cy="18" r="1.5" fill="#2c3e50"/>
    <path d="M18 23 Q20 25, 22 23" stroke="#2c3e50" stroke-width="1.5" fill="none"/>
  </g>
  
  <!-- Connection heart between them -->
  <g transform="translate(50,25)">
    <path d="M10 12 C8 8, 2 8, 2 12 C2 16, 10 22, 10 22 C10 22, 18 16, 18 12 C18 8, 12 8, 10 12 Z" 
          fill="#ff416c" 
          opacity="0.8">
      <animateTransform attributeName="transform" type="scale" values="1;1.2;1" dur="2s" repeatCount="indefinite"/>
    </path>
  </g>
  
  <!-- Floating hearts -->
  <g opacity="0.6">
    <circle cx="15" cy="25" r="2" fill="#ff9a9e">
      <animate attributeName="cy" values="25;15;25" dur="3s" repeatCount="indefinite"/>
      <animate attributeName="opacity" values="0.6;0.2;0.6" dur="3s" repeatCount="indefinite"/>
    </circle>
    <circle cx="105" cy="30" r="1.5" fill="#fecfef">
      <animate attributeName="cy" values="30;20;30" dur="4s" repeatCount="indefinite"/>
      <animate attributeName="opacity" values="0.6;0.2;0.6" dur="4s" repeatCount="indefinite"/>
    </circle>
    <circle cx="60" cy="15" r="1" fill="#ff416c">
      <animate attributeName="cy" values="15;8;15" dur="2.5s" repeatCount="indefinite"/>
      <animate attributeName="opacity" values="0.6;0.2;0.6" dur="2.5s" repeatCount="indefinite"/>
    </circle>
  </g>
</svg>
