<svg xmlns="http://www.w3.org/2000/svg" viewBox="0 0 100 100" width="100" height="100">
  <defs>
    <linearGradient id="heartGradient" x1="0%" y1="0%" x2="100%" y2="100%">
      <stop offset="0%" style="stop-color:#ff9a9e;stop-opacity:1" />
      <stop offset="50%" style="stop-color:#fecfef;stop-opacity:1" />
      <stop offset="100%" style="stop-color:#ff416c;stop-opacity:1" />
    </linearGradient>
    <filter id="softGlow" x="-50%" y="-50%" width="200%" height="200%">
      <feGaussianBlur stdDeviation="3" result="coloredBlur"/>
      <feMerge> 
        <feMergeNode in="coloredBlur"/>
        <feMergeNode in="SourceGraphic"/>
      </feMerge>
    </filter>
  </defs>
  
  <!-- Heart shadow -->
  <path d="M50 85 C30 65, 10 45, 10 25 C10 15, 20 5, 30 5 C40 5, 45 10, 50 15 C55 10, 60 5, 70 5 C80 5, 90 15, 90 25 C90 45, 70 65, 50 85 Z" 
        fill="rgba(0,0,0,0.1)" 
        transform="translate(2,2)"/>
  
  <!-- Main heart -->
  <path d="M50 85 C30 65, 10 45, 10 25 C10 15, 20 5, 30 5 C40 5, 45 10, 50 15 C55 10, 60 5, 70 5 C80 5, 90 15, 90 25 C90 45, 70 65, 50 85 Z" 
        fill="url(#heartGradient)" 
        filter="url(#softGlow)"
        stroke="#ff416c" 
        stroke-width="1" 
        opacity="0.9"/>
  
  <!-- Heart highlight -->
  <ellipse cx="35" cy="20" rx="8" ry="6" fill="rgba(255,255,255,0.4)" opacity="0.8"/>
  
  <!-- Sparkle effects -->
  <circle cx="25" cy="30" r="1.5" fill="#fff" opacity="0.8">
    <animate attributeName="opacity" values="0.8;0.3;0.8" dur="2s" repeatCount="indefinite"/>
  </circle>
  <circle cx="75" cy="35" r="1" fill="#fff" opacity="0.6">
    <animate attributeName="opacity" values="0.6;0.2;0.6" dur="3s" repeatCount="indefinite"/>
  </circle>
  <circle cx="60" cy="25" r="0.8" fill="#fff" opacity="0.7">
    <animate attributeName="opacity" values="0.7;0.2;0.7" dur="2.5s" repeatCount="indefinite"/>
  </circle>
</svg>
